# Blender v2.79 (sub 0) OBJ File: ''
# www.blender.org
mtllib board-v2.mtl
o SketchUp_ID3.002
v 0.285000 0.040000 0.000000
v 0.275000 0.040000 0.190000
v 0.285000 0.040000 0.870000
v 0.050000 0.040000 0.000000
v 0.050000 0.040000 0.010000
v -0.285000 0.040000 0.000000
v 0.010000 0.040000 0.010000
v 0.010000 0.040000 0.000000
v -0.245000 0.040000 0.010000
v -0.235000 0.040000 0.190000
v -0.235000 0.040000 0.590000
v -0.235170 0.040000 0.591294
v -0.235670 0.040000 0.592500
v -0.236464 0.040000 0.593536
v -0.237500 0.040000 0.594330
v -0.238706 0.040000 0.594830
v -0.240000 0.040000 0.595000
v -0.241294 0.040000 0.594830
v -0.242500 0.040000 0.594330
v -0.243536 0.040000 0.593536
v -0.244330 0.040000 0.592500
v -0.244830 0.040000 0.591294
v -0.275000 0.040000 0.010000
v -0.275000 0.040000 0.610000
v -0.285000 0.040000 0.870000
v 0.008152 0.040000 0.859880
v 0.016296 0.040000 0.859519
v 0.024427 0.040000 0.858918
v 0.032536 0.040000 0.858077
v 0.040617 0.040000 0.856998
v 0.048662 0.040000 0.855680
v 0.056665 0.040000 0.854126
v 0.064619 0.040000 0.852336
v 0.072516 0.040000 0.850312
v 0.080350 0.040000 0.848056
v 0.088114 0.040000 0.845570
v 0.095802 0.040000 0.842856
v 0.103406 0.040000 0.839916
v 0.110920 0.040000 0.836754
v 0.118337 0.040000 0.833370
v 0.125652 0.040000 0.829770
v 0.132857 0.040000 0.825955
v 0.139946 0.040000 0.821929
v 0.146913 0.040000 0.817696
v 0.153753 0.040000 0.813259
v 0.160458 0.040000 0.808622
v 0.167024 0.040000 0.803789
v 0.173444 0.040000 0.798764
v 0.179713 0.040000 0.793553
v 0.185826 0.040000 0.788158
v 0.191777 0.040000 0.782586
v 0.197560 0.040000 0.776840
v 0.203172 0.040000 0.770927
v 0.208607 0.040000 0.764850
v 0.213860 0.040000 0.758615
v 0.218927 0.040000 0.752229
v 0.223803 0.040000 0.745695
v 0.228484 0.040000 0.739020
v 0.232967 0.040000 0.732211
v 0.237246 0.040000 0.725272
v 0.241319 0.040000 0.718209
v 0.245181 0.040000 0.711030
v 0.248830 0.040000 0.703739
v 0.252263 0.040000 0.696345
v 0.255475 0.040000 0.688852
v 0.258466 0.040000 0.681267
v 0.261231 0.040000 0.673598
v 0.263768 0.040000 0.665850
v 0.266076 0.040000 0.658031
v 0.268152 0.040000 0.650147
v 0.269994 0.040000 0.642206
v 0.271602 0.040000 0.634213
v 0.272973 0.040000 0.626177
v 0.274106 0.040000 0.618103
v 0.275000 0.040000 0.610000
v 0.000000 0.040000 0.860000
v -0.008152 0.040000 0.859880
v -0.016296 0.040000 0.859519
v -0.024427 0.040000 0.858918
v -0.032536 0.040000 0.858077
v -0.040617 0.040000 0.856998
v -0.048662 0.040000 0.855680
v -0.056665 0.040000 0.854126
v -0.064619 0.040000 0.852336
v -0.072516 0.040000 0.850312
v -0.080350 0.040000 0.848056
v -0.088114 0.040000 0.845570
v -0.095802 0.040000 0.842856
v -0.103406 0.040000 0.839916
v -0.110920 0.040000 0.836754
v -0.118337 0.040000 0.833370
v -0.125652 0.040000 0.829770
v -0.132857 0.040000 0.825955
v -0.139946 0.040000 0.821929
v -0.146913 0.040000 0.817696
v -0.153753 0.040000 0.813259
v -0.160458 0.040000 0.808622
v -0.167024 0.040000 0.803789
v -0.173444 0.040000 0.798764
v -0.179713 0.040000 0.793553
v -0.185826 0.040000 0.788158
v -0.191777 0.040000 0.782586
v -0.197560 0.040000 0.776840
v -0.203172 0.040000 0.770927
v -0.208607 0.040000 0.764850
v -0.213860 0.040000 0.758615
v -0.218927 0.040000 0.752229
v -0.223803 0.040000 0.745695
v -0.228484 0.040000 0.739020
v -0.232967 0.040000 0.732211
v -0.237246 0.040000 0.725272
v -0.241319 0.040000 0.718209
v -0.245181 0.040000 0.711030
v -0.248830 0.040000 0.703739
v -0.252263 0.040000 0.696345
v -0.255475 0.040000 0.688852
v -0.258466 0.040000 0.681267
v -0.261231 0.040000 0.673598
v -0.263768 0.040000 0.665850
v -0.266076 0.040000 0.658031
v -0.268152 0.040000 0.650147
v -0.269994 0.040000 0.642206
v -0.271602 0.040000 0.634213
v -0.272973 0.040000 0.626177
v -0.274106 0.040000 0.618103
v -0.245000 0.040000 0.590000
v -0.285000 0.000000 0.870000
v -0.285000 0.040000 0.000000
v -0.285000 0.000000 0.000000
v -0.285000 0.040000 0.870000
v 0.285000 0.040000 0.870000
v -0.285000 0.000000 0.870000
v 0.285000 0.000000 0.870000
v -0.285000 0.040000 0.870000
v 0.285000 0.040000 0.870000
v 0.285000 0.000000 0.000000
v 0.285000 0.040000 0.000000
v 0.285000 0.000000 0.870000
v 0.050000 0.040000 0.000000
v 0.285000 0.000000 0.000000
v 0.050000 0.000000 0.000000
v 0.285000 0.040000 0.000000
v 0.050000 0.000000 0.010000
v 0.050000 0.040000 0.000000
v 0.050000 0.000000 0.000000
v 0.050000 0.040000 0.010000
v 0.275000 0.040000 0.190000
v 0.050000 0.000000 0.010000
v 0.275000 0.000000 0.190000
v 0.050000 0.040000 0.010000
v 0.275000 0.000000 0.610000
v 0.275000 0.040000 0.190000
v 0.275000 0.000000 0.190000
v 0.275000 0.040000 0.610000
v 0.274106 0.000000 0.618103
v 0.275000 0.040000 0.610000
v 0.275000 0.000000 0.610000
v 0.274106 0.040000 0.618103
v 0.272973 0.000000 0.626177
v 0.272973 0.040000 0.626177
v 0.271602 0.000000 0.634213
v 0.271602 0.040000 0.634213
v 0.269994 0.000000 0.642206
v 0.269994 0.040000 0.642206
v 0.268152 0.000000 0.650147
v 0.268152 0.040000 0.650147
v 0.266076 0.000000 0.658031
v 0.266076 0.040000 0.658031
v 0.263768 0.000000 0.665850
v 0.263768 0.040000 0.665850
v 0.261231 0.000000 0.673598
v 0.261231 0.040000 0.673598
v 0.258466 0.000000 0.681267
v 0.258466 0.040000 0.681267
v 0.255475 0.000000 0.688852
v 0.255475 0.040000 0.688852
v 0.252263 0.000000 0.696345
v 0.252263 0.040000 0.696345
v 0.248830 0.000000 0.703739
v 0.248830 0.040000 0.703739
v 0.245181 0.000000 0.711030
v 0.245181 0.040000 0.711030
v 0.241319 0.000000 0.718209
v 0.241319 0.040000 0.718209
v 0.237246 0.000000 0.725272
v 0.237246 0.040000 0.725272
v 0.232967 0.000000 0.732211
v 0.232967 0.040000 0.732211
v 0.228484 0.000000 0.739020
v 0.228484 0.040000 0.739020
v 0.223803 0.000000 0.745695
v 0.223803 0.040000 0.745695
v 0.218927 0.000000 0.752229
v 0.218927 0.040000 0.752229
v 0.213860 0.000000 0.758615
v 0.213860 0.040000 0.758615
v 0.208607 0.000000 0.764850
v 0.208607 0.040000 0.764850
v 0.203172 0.000000 0.770927
v 0.203172 0.040000 0.770927
v 0.197560 0.000000 0.776840
v 0.197560 0.040000 0.776840
v 0.191777 0.040000 0.782586
v 0.191777 0.000000 0.782586
v 0.185826 0.040000 0.788158
v 0.185826 0.000000 0.788158
v 0.179713 0.040000 0.793553
v 0.179713 0.000000 0.793553
v 0.173444 0.040000 0.798764
v 0.173444 0.000000 0.798764
v 0.167024 0.040000 0.803789
v 0.167024 0.000000 0.803789
v 0.160458 0.040000 0.808622
v 0.160458 0.000000 0.808622
v 0.153753 0.040000 0.813259
v 0.153753 0.000000 0.813259
v 0.146913 0.040000 0.817696
v 0.146913 0.000000 0.817696
v 0.139946 0.040000 0.821929
v 0.139946 0.000000 0.821929
v 0.132857 0.040000 0.825955
v 0.132857 0.000000 0.825955
v 0.125652 0.040000 0.829770
v 0.125652 0.000000 0.829770
v 0.118337 0.040000 0.833370
v 0.118337 0.000000 0.833370
v 0.110920 0.040000 0.836754
v 0.110920 0.000000 0.836754
v 0.103406 0.040000 0.839916
v 0.103406 0.000000 0.839916
v 0.095802 0.040000 0.842856
v 0.095802 0.000000 0.842856
v 0.088114 0.040000 0.845570
v 0.088114 0.000000 0.845570
v 0.080350 0.040000 0.848056
v 0.080350 0.000000 0.848056
v 0.072516 0.040000 0.850312
v 0.072516 0.000000 0.850312
v 0.064619 0.040000 0.852336
v 0.064619 0.000000 0.852336
v 0.056665 0.040000 0.854126
v 0.056665 0.000000 0.854126
v 0.048662 0.040000 0.855680
v 0.048662 0.000000 0.855680
v 0.040617 0.040000 0.856998
v 0.040617 0.000000 0.856998
v 0.032536 0.040000 0.858077
v 0.032536 0.000000 0.858077
v 0.024427 0.040000 0.858918
v 0.024427 0.000000 0.858918
v 0.016296 0.040000 0.859519
v 0.016296 0.000000 0.859519
v 0.008152 0.040000 0.859880
v 0.008152 0.000000 0.859880
v 0.000000 0.040000 0.860000
v 0.000000 0.000000 0.860000
v -0.008152 0.040000 0.859880
v -0.008152 0.000000 0.859880
v -0.016296 0.040000 0.859519
v -0.016296 0.000000 0.859519
v -0.024427 0.040000 0.858918
v -0.024427 0.000000 0.858918
v -0.032536 0.040000 0.858077
v -0.032536 0.000000 0.858077
v -0.040617 0.040000 0.856998
v -0.040617 0.000000 0.856998
v -0.048662 0.040000 0.855680
v -0.048662 0.000000 0.855680
v -0.056665 0.040000 0.854126
v -0.056665 0.000000 0.854126
v -0.064619 0.040000 0.852336
v -0.064619 0.000000 0.852336
v -0.072516 0.040000 0.850312
v -0.072516 0.000000 0.850312
v -0.080350 0.040000 0.848056
v -0.080350 0.000000 0.848056
v -0.088114 0.040000 0.845570
v -0.088114 0.000000 0.845570
v -0.095802 0.040000 0.842856
v -0.095802 0.000000 0.842856
v -0.103406 0.040000 0.839916
v -0.103406 0.000000 0.839916
v -0.110920 0.040000 0.836754
v -0.110920 0.000000 0.836754
v -0.118337 0.040000 0.833370
v -0.118337 0.000000 0.833370
v -0.125652 0.040000 0.829770
v -0.125652 0.000000 0.829770
v -0.132857 0.040000 0.825955
v -0.132857 0.000000 0.825955
v -0.139946 0.040000 0.821929
v -0.139946 0.000000 0.821929
v -0.146913 0.040000 0.817696
v -0.146913 0.000000 0.817696
v -0.153753 0.040000 0.813259
v -0.153753 0.000000 0.813259
v -0.160458 0.040000 0.808622
v -0.160458 0.000000 0.808622
v -0.167024 0.040000 0.803789
v -0.167024 0.000000 0.803789
v -0.173444 0.040000 0.798764
v -0.173444 0.000000 0.798764
v -0.179713 0.040000 0.793553
v -0.179713 0.000000 0.793553
v -0.185826 0.040000 0.788158
v -0.185826 0.000000 0.788158
v -0.191777 0.040000 0.782586
v -0.191777 0.000000 0.782586
v -0.197560 0.040000 0.776840
v -0.197560 0.000000 0.776840
v -0.203172 0.000000 0.770927
v -0.203172 0.040000 0.770927
v -0.208607 0.000000 0.764850
v -0.208607 0.040000 0.764850
v -0.213860 0.000000 0.758615
v -0.213860 0.040000 0.758615
v -0.218927 0.000000 0.752229
v -0.218927 0.040000 0.752229
v -0.223803 0.000000 0.745695
v -0.223803 0.040000 0.745695
v -0.228484 0.000000 0.739020
v -0.228484 0.040000 0.739020
v -0.232967 0.000000 0.732211
v -0.232967 0.040000 0.732211
v -0.237246 0.000000 0.725272
v -0.237246 0.040000 0.725272
v -0.241319 0.000000 0.718209
v -0.241319 0.040000 0.718209
v -0.245181 0.000000 0.711030
v -0.245181 0.040000 0.711030
v -0.248830 0.000000 0.703739
v -0.248830 0.040000 0.703739
v -0.252263 0.000000 0.696345
v -0.252263 0.040000 0.696345
v -0.255475 0.000000 0.688852
v -0.255475 0.040000 0.688852
v -0.258466 0.000000 0.681267
v -0.258466 0.040000 0.681267
v -0.261231 0.000000 0.673598
v -0.261231 0.040000 0.673598
v -0.263768 0.000000 0.665850
v -0.263768 0.040000 0.665850
v -0.266076 0.000000 0.658031
v -0.266076 0.040000 0.658031
v -0.268152 0.000000 0.650147
v -0.268152 0.040000 0.650147
v -0.269994 0.000000 0.642206
v -0.269994 0.040000 0.642206
v -0.271602 0.000000 0.634213
v -0.271602 0.040000 0.634213
v -0.272973 0.000000 0.626177
v -0.272973 0.040000 0.626177
v -0.274106 0.000000 0.618103
v -0.274106 0.040000 0.618103
v -0.275000 0.000000 0.610000
v -0.275000 0.040000 0.610000
v -0.275000 0.040000 0.610000
v -0.275000 0.000000 0.010000
v -0.275000 0.040000 0.010000
v -0.275000 0.000000 0.610000
v -0.245000 0.040000 0.010000
v -0.275000 0.000000 0.010000
v -0.245000 0.000000 0.010000
v -0.275000 0.040000 0.010000
v -0.245000 0.000000 0.590000
v -0.245000 0.040000 0.010000
v -0.245000 0.000000 0.010000
v -0.245000 0.040000 0.590000
v -0.244830 0.000000 0.591294
v -0.245000 0.040000 0.590000
v -0.245000 0.000000 0.590000
v -0.244830 0.040000 0.591294
v -0.244330 0.000000 0.592500
v -0.244330 0.040000 0.592500
v -0.243536 0.000000 0.593536
v -0.243536 0.040000 0.593536
v -0.242500 0.040000 0.594330
v -0.242500 0.000000 0.594330
v -0.241294 0.040000 0.594830
v -0.241294 0.000000 0.594830
v -0.240000 0.040000 0.595000
v -0.240000 0.000000 0.595000
v -0.238706 0.040000 0.594830
v -0.238706 0.000000 0.594830
v -0.237500 0.040000 0.594330
v -0.237500 0.000000 0.594330
v -0.236464 0.040000 0.593536
v -0.236464 0.000000 0.593536
v -0.235670 0.000000 0.592500
v -0.235670 0.040000 0.592500
v -0.235170 0.000000 0.591294
v -0.235170 0.040000 0.591294
v -0.235000 0.000000 0.590000
v -0.235000 0.040000 0.590000
v -0.235000 0.040000 0.590000
v -0.235000 0.000000 0.190000
v -0.235000 0.040000 0.190000
v -0.235000 0.000000 0.590000
v 0.010000 0.040000 0.010000
v -0.235000 0.000000 0.190000
v 0.010000 0.000000 0.010000
v -0.235000 0.040000 0.190000
v 0.010000 0.040000 0.010000
v 0.010000 0.000000 0.000000
v 0.010000 0.040000 0.000000
v 0.010000 0.000000 0.010000
v -0.285000 0.040000 0.000000
v 0.010000 0.000000 0.000000
v -0.285000 0.000000 0.000000
v 0.010000 0.040000 0.000000
vn 0.0000 1.0000 0.0000
vn -1.0000 0.0000 0.0000
vn 0.0000 0.0000 1.0000
vn 1.0000 0.0000 0.0000
vn 0.0000 0.0000 -1.0000
vn -0.6247 0.0000 0.7809
vn 0.5921 0.0000 0.8059
vn -0.9922 0.0000 -0.1243
vn -0.9940 0.0000 -0.1097
vn -0.9881 0.0000 -0.1536
vn -0.9832 0.0000 -0.1827
vn -0.9774 0.0000 -0.2116
vn -0.9707 0.0000 -0.2403
vn -0.9632 0.0000 -0.2689
vn -0.9548 0.0000 -0.2972
vn -0.9456 0.0000 -0.3252
vn -0.9356 0.0000 -0.3530
vn -0.9248 0.0000 -0.3804
vn -0.9131 0.0000 -0.4076
vn -0.9007 0.0000 -0.4343
vn -0.8875 0.0000 -0.4607
vn -0.8735 0.0000 -0.4867
vn -0.8588 0.0000 -0.5123
vn -0.8433 0.0000 -0.5374
vn -0.8271 0.0000 -0.5621
vn -0.8101 0.0000 -0.5862
vn -0.7925 0.0000 -0.6099
vn -0.7741 0.0000 -0.6330
vn -0.7551 0.0000 -0.6555
vn -0.7551 0.0000 -0.6556
vn -0.7355 0.0000 -0.6775
vn -0.7354 0.0000 -0.6775
vn -0.7151 0.0000 -0.6990
vn -0.6942 0.0000 -0.7197
vn -0.6727 0.0000 -0.7399
vn -0.6505 0.0000 -0.7595
vn -0.6278 0.0000 -0.7783
vn -0.6046 0.0000 -0.7965
vn -0.5808 0.0000 -0.8140
vn -0.5566 0.0000 -0.8308
vn -0.5318 0.0000 -0.8469
vn -0.5066 0.0000 -0.8622
vn -0.4809 0.0000 -0.8767
vn -0.4548 0.0000 -0.8906
vn -0.4284 0.0000 -0.9036
vn -0.4015 0.0000 -0.9158
vn -0.3743 0.0000 -0.9273
vn -0.3468 0.0000 -0.9379
vn -0.3189 0.0000 -0.9478
vn -0.2908 0.0000 -0.9568
vn -0.2625 0.0000 -0.9649
vn -0.2339 0.0000 -0.9722
vn -0.2051 0.0000 -0.9787
vn -0.1761 0.0000 -0.9843
vn -0.1470 0.0000 -0.9891
vn -0.1178 0.0000 -0.9930
vn -0.1177 0.0000 -0.9930
vn -0.0884 0.0000 -0.9961
vn -0.0590 0.0000 -0.9982
vn -0.0295 0.0000 -0.9995
vn 0.0295 0.0000 -0.9995
vn 0.0590 0.0000 -0.9982
vn 0.0884 0.0000 -0.9961
vn 0.1177 0.0000 -0.9930
vn 0.1178 0.0000 -0.9930
vn 0.1470 0.0000 -0.9891
vn 0.1761 0.0000 -0.9843
vn 0.2051 0.0000 -0.9787
vn 0.2339 0.0000 -0.9722
vn 0.2625 0.0000 -0.9649
vn 0.2908 0.0000 -0.9568
vn 0.3189 0.0000 -0.9478
vn 0.3468 0.0000 -0.9379
vn 0.3743 0.0000 -0.9273
vn 0.4015 0.0000 -0.9158
vn 0.4284 0.0000 -0.9036
vn 0.4548 0.0000 -0.8906
vn 0.4809 0.0000 -0.8767
vn 0.5066 0.0000 -0.8622
vn 0.5318 0.0000 -0.8469
vn 0.5566 0.0000 -0.8308
vn 0.5808 0.0000 -0.8140
vn 0.6046 0.0000 -0.7965
vn 0.6278 0.0000 -0.7783
vn 0.6505 0.0000 -0.7595
vn 0.6727 0.0000 -0.7399
vn 0.6942 0.0000 -0.7197
vn 0.7151 0.0000 -0.6990
vn 0.7354 0.0000 -0.6775
vn 0.7355 0.0000 -0.6775
vn 0.7551 0.0000 -0.6556
vn 0.7551 0.0000 -0.6555
vn 0.7741 0.0000 -0.6330
vn 0.7925 0.0000 -0.6099
vn 0.8101 0.0000 -0.5862
vn 0.8271 0.0000 -0.5621
vn 0.8433 0.0000 -0.5374
vn 0.8588 0.0000 -0.5123
vn 0.8735 0.0000 -0.4867
vn 0.8875 0.0000 -0.4607
vn 0.9007 0.0000 -0.4343
vn 0.9131 0.0000 -0.4076
vn 0.9248 0.0000 -0.3804
vn 0.9356 0.0000 -0.3530
vn 0.9456 0.0000 -0.3252
vn 0.9548 0.0000 -0.2972
vn 0.9632 0.0000 -0.2689
vn 0.9707 0.0000 -0.2403
vn 0.9774 0.0000 -0.2116
vn 0.9832 0.0000 -0.1827
vn 0.9881 0.0000 -0.1536
vn 0.9922 0.0000 -0.1243
vn 0.9940 0.0000 -0.1097
vn -0.9659 0.0000 0.2588
vn -0.9914 0.0000 0.1305
vn -0.8660 0.0000 0.5000
vn -0.7071 0.0000 0.7071
vn -0.5000 0.0000 0.8660
vn -0.2588 0.0000 0.9659
vn -0.2589 0.0000 0.9659
vn 0.2589 0.0000 0.9659
vn 0.2588 0.0000 0.9659
vn 0.5000 0.0000 0.8660
vn 0.7071 0.0000 0.7071
vn 0.8660 0.0000 0.5000
vn 0.9659 0.0000 0.2588
vn 0.9914 0.0000 0.1305
usemtl material.002
s off
f 1//1 2//1 3//1
f 2//1 1//1 4//1
f 2//1 4//1 5//1
f 6//1 7//1 8//1
f 7//1 6//1 9//1
f 7//1 9//1 10//1
f 10//1 9//1 11//1
f 11//1 9//1 12//1
f 12//1 9//1 13//1
f 13//1 9//1 14//1
f 14//1 9//1 15//1
f 15//1 9//1 16//1
f 16//1 9//1 17//1
f 17//1 9//1 18//1
f 18//1 9//1 19//1
f 19//1 9//1 20//1
f 20//1 9//1 21//1
f 21//1 9//1 22//1
f 9//1 6//1 23//1
f 23//1 6//1 24//1
f 24//1 6//1 25//1
f 3//1 26//1 25//1
f 26//1 3//1 27//1
f 27//1 3//1 28//1
f 28//1 3//1 29//1
f 29//1 3//1 30//1
f 30//1 3//1 31//1
f 31//1 3//1 32//1
f 32//1 3//1 33//1
f 33//1 3//1 34//1
f 34//1 3//1 35//1
f 35//1 3//1 36//1
f 36//1 3//1 37//1
f 37//1 3//1 38//1
f 38//1 3//1 39//1
f 39//1 3//1 40//1
f 40//1 3//1 41//1
f 41//1 3//1 42//1
f 42//1 3//1 43//1
f 43//1 3//1 44//1
f 44//1 3//1 45//1
f 45//1 3//1 46//1
f 46//1 3//1 47//1
f 47//1 3//1 48//1
f 48//1 3//1 49//1
f 49//1 3//1 50//1
f 50//1 3//1 51//1
f 51//1 3//1 52//1
f 52//1 3//1 53//1
f 53//1 3//1 54//1
f 54//1 3//1 55//1
f 55//1 3//1 56//1
f 56//1 3//1 57//1
f 57//1 3//1 58//1
f 58//1 3//1 59//1
f 59//1 3//1 60//1
f 60//1 3//1 61//1
f 61//1 3//1 62//1
f 62//1 3//1 63//1
f 63//1 3//1 64//1
f 64//1 3//1 65//1
f 65//1 3//1 66//1
f 66//1 3//1 67//1
f 67//1 3//1 68//1
f 68//1 3//1 69//1
f 69//1 3//1 70//1
f 70//1 3//1 71//1
f 71//1 3//1 72//1
f 72//1 3//1 73//1
f 73//1 3//1 74//1
f 74//1 3//1 75//1
f 75//1 3//1 2//1
f 25//1 26//1 76//1
f 25//1 76//1 77//1
f 25//1 77//1 78//1
f 25//1 78//1 79//1
f 25//1 79//1 80//1
f 25//1 80//1 81//1
f 25//1 81//1 82//1
f 25//1 82//1 83//1
f 25//1 83//1 84//1
f 25//1 84//1 85//1
f 25//1 85//1 86//1
f 25//1 86//1 87//1
f 25//1 87//1 88//1
f 25//1 88//1 89//1
f 25//1 89//1 90//1
f 25//1 90//1 91//1
f 25//1 91//1 92//1
f 25//1 92//1 93//1
f 25//1 93//1 94//1
f 25//1 94//1 95//1
f 25//1 95//1 96//1
f 25//1 96//1 97//1
f 25//1 97//1 98//1
f 25//1 98//1 99//1
f 25//1 99//1 100//1
f 25//1 100//1 101//1
f 25//1 101//1 102//1
f 25//1 102//1 103//1
f 25//1 103//1 104//1
f 25//1 104//1 105//1
f 25//1 105//1 106//1
f 25//1 106//1 107//1
f 25//1 107//1 108//1
f 25//1 108//1 109//1
f 25//1 109//1 110//1
f 25//1 110//1 111//1
f 25//1 111//1 112//1
f 25//1 112//1 113//1
f 25//1 113//1 114//1
f 25//1 114//1 115//1
f 25//1 115//1 116//1
f 25//1 116//1 117//1
f 25//1 117//1 118//1
f 25//1 118//1 119//1
f 25//1 119//1 120//1
f 25//1 120//1 121//1
f 25//1 121//1 122//1
f 25//1 122//1 123//1
f 25//1 123//1 124//1
f 25//1 124//1 125//1
f 25//1 125//1 24//1
f 126//1 22//1 9//1
f 127//2 128//2 129//2
f 128//2 127//2 130//2
f 131//3 132//3 133//3
f 132//3 131//3 134//3
f 135//4 136//4 137//4
f 136//4 135//4 138//4
f 139//5 140//5 141//5
f 140//5 139//5 142//5
f 143//2 144//2 145//2
f 144//2 143//2 146//2
f 147//6 148//6 149//6
f 148//6 147//6 150//6
f 151//2 152//2 153//2
f 152//2 151//2 154//2
f 357//4 358//4 359//4
f 358//4 357//4 360//4
f 361//3 362//3 363//3
f 362//3 361//3 364//3
f 365//2 366//2 367//2
f 366//2 365//2 368//2
f 395//4 396//4 397//4
f 396//4 395//4 398//4
f 399//7 400//7 401//7
f 400//7 399//7 402//7
f 403//4 404//4 405//4
f 404//4 403//4 406//4
f 407//5 408//5 409//5
f 408//5 407//5 410//5
s 1
f 155//8 156//9 157//9
f 156//9 155//8 158//8
f 159//10 158//8 155//8
f 158//8 159//10 160//10
f 161//11 160//10 159//10
f 160//10 161//11 162//11
f 163//12 162//11 161//11
f 162//11 163//12 164//12
f 165//13 164//12 163//12
f 164//12 165//13 166//13
f 167//14 166//13 165//13
f 166//13 167//14 168//14
f 169//15 168//14 167//14
f 168//14 169//15 170//15
f 171//16 170//15 169//15
f 170//15 171//16 172//16
f 173//17 172//16 171//16
f 172//16 173//17 174//17
f 175//18 174//17 173//17
f 174//17 175//18 176//18
f 177//19 176//18 175//18
f 176//18 177//19 178//19
f 179//20 178//19 177//19
f 178//19 179//20 180//20
f 181//21 180//20 179//20
f 180//20 181//21 182//21
f 183//22 182//21 181//21
f 182//21 183//22 184//22
f 185//23 184//22 183//22
f 184//22 185//23 186//23
f 187//24 186//23 185//23
f 186//23 187//24 188//24
f 189//25 188//24 187//24
f 188//24 189//25 190//25
f 191//26 190//25 189//25
f 190//25 191//26 192//26
f 193//27 192//26 191//26
f 192//26 193//27 194//27
f 195//28 194//27 193//27
f 194//27 195//28 196//28
f 197//29 196//28 195//28
f 196//28 197//29 198//30
f 199//31 198//30 197//29
f 198//30 199//31 200//32
f 201//33 200//32 199//31
f 200//32 201//33 202//33
f 203//34 201//33 204//34
f 201//33 203//34 202//33
f 205//35 204//34 206//35
f 204//34 205//35 203//34
f 207//36 206//35 208//36
f 206//35 207//36 205//35
f 209//37 208//36 210//37
f 208//36 209//37 207//36
f 211//38 210//37 212//38
f 210//37 211//38 209//37
f 213//39 212//38 214//39
f 212//38 213//39 211//38
f 215//40 214//39 216//40
f 214//39 215//40 213//39
f 217//41 216//40 218//41
f 216//40 217//41 215//40
f 219//42 218//41 220//42
f 218//41 219//42 217//41
f 221//43 220//42 222//43
f 220//42 221//43 219//42
f 223//44 222//43 224//44
f 222//43 223//44 221//43
f 225//45 224//44 226//45
f 224//44 225//45 223//44
f 227//46 226//45 228//46
f 226//45 227//46 225//45
f 229//47 228//46 230//47
f 228//46 229//47 227//46
f 231//48 230//47 232//48
f 230//47 231//48 229//47
f 233//49 232//48 234//49
f 232//48 233//49 231//48
f 235//50 234//49 236//50
f 234//49 235//50 233//49
f 237//51 236//50 238//51
f 236//50 237//51 235//50
f 239//52 238//51 240//52
f 238//51 239//52 237//51
f 241//53 240//52 242//53
f 240//52 241//53 239//52
f 243//54 242//53 244//54
f 242//53 243//54 241//53
f 245//55 244//54 246//55
f 244//54 245//55 243//54
f 247//56 246//55 248//57
f 246//55 247//56 245//55
f 249//58 248//57 250//58
f 248//57 249//58 247//56
f 251//59 250//58 252//59
f 250//58 251//59 249//58
f 253//60 252//59 254//60
f 252//59 253//60 251//59
f 255//5 254//60 256//5
f 254//60 255//5 253//60
f 257//61 256//5 258//61
f 256//5 257//61 255//5
f 259//62 258//61 260//62
f 258//61 259//62 257//61
f 261//63 260//62 262//63
f 260//62 261//63 259//62
f 263//64 262//63 264//65
f 262//63 263//64 261//63
f 265//66 264//65 266//66
f 264//65 265//66 263//64
f 267//67 266//66 268//67
f 266//66 267//67 265//66
f 269//68 268//67 270//68
f 268//67 269//68 267//67
f 271//69 270//68 272//69
f 270//68 271//69 269//68
f 273//70 272//69 274//70
f 272//69 273//70 271//69
f 275//71 274//70 276//71
f 274//70 275//71 273//70
f 277//72 276//71 278//72
f 276//71 277//72 275//71
f 279//73 278//72 280//73
f 278//72 279//73 277//72
f 281//74 280//73 282//74
f 280//73 281//74 279//73
f 283//75 282//74 284//75
f 282//74 283//75 281//74
f 285//76 284//75 286//76
f 284//75 285//76 283//75
f 287//77 286//76 288//77
f 286//76 287//77 285//76
f 289//78 288//77 290//78
f 288//77 289//78 287//77
f 291//79 290//78 292//79
f 290//78 291//79 289//78
f 293//80 292//79 294//80
f 292//79 293//80 291//79
f 295//81 294//80 296//81
f 294//80 295//81 293//80
f 297//82 296//81 298//82
f 296//81 297//82 295//81
f 299//83 298//82 300//83
f 298//82 299//83 297//82
f 301//84 300//83 302//84
f 300//83 301//84 299//83
f 303//85 302//84 304//85
f 302//84 303//85 301//84
f 305//86 304//85 306//86
f 304//85 305//86 303//85
f 307//87 306//86 308//87
f 306//86 307//87 305//86
f 309//88 308//87 310//88
f 308//87 309//88 307//87
f 309//88 311//89 312//90
f 311//89 309//88 310//88
f 312//90 313//91 314//92
f 313//91 312//90 311//89
f 314//92 315//93 316//93
f 315//93 314//92 313//91
f 316//93 317//94 318//94
f 317//94 316//93 315//93
f 318//94 319//95 320//95
f 319//95 318//94 317//94
f 320//95 321//96 322//96
f 321//96 320//95 319//95
f 322//96 323//97 324//97
f 323//97 322//96 321//96
f 324//97 325//98 326//98
f 325//98 324//97 323//97
f 326//98 327//99 328//99
f 327//99 326//98 325//98
f 328//99 329//100 330//100
f 329//100 328//99 327//99
f 330//100 331//101 332//101
f 331//101 330//100 329//100
f 332//101 333//102 334//102
f 333//102 332//101 331//101
f 334//102 335//103 336//103
f 335//103 334//102 333//102
f 336//103 337//104 338//104
f 337//104 336//103 335//103
f 338//104 339//105 340//105
f 339//105 338//104 337//104
f 340//105 341//106 342//106
f 341//106 340//105 339//105
f 342//106 343//107 344//107
f 343//107 342//106 341//106
f 344//107 345//108 346//108
f 345//108 344//107 343//107
f 346//108 347//109 348//109
f 347//109 346//108 345//108
f 348//109 349//110 350//110
f 349//110 348//109 347//109
f 350//110 351//111 352//111
f 351//111 350//110 349//110
f 352//111 353//112 354//112
f 353//112 352//111 351//111
f 354//112 355//113 356//113
f 355//113 354//112 353//112
f 369//114 370//115 371//115
f 370//115 369//114 372//114
f 373//116 372//114 369//114
f 372//114 373//116 374//116
f 375//117 374//116 373//116
f 374//116 375//117 376//117
f 377//118 375//117 378//118
f 375//117 377//118 376//117
f 379//119 378//118 380//120
f 378//118 379//119 377//118
f 381//3 380//120 382//3
f 380//120 381//3 379//119
f 383//121 382//3 384//122
f 382//3 383//121 381//3
f 385//123 384//122 386//123
f 384//122 385//123 383//121
f 387//124 386//123 388//124
f 386//123 387//124 385//123
f 387//124 389//125 390//125
f 389//125 387//124 388//124
f 390//125 391//126 392//126
f 391//126 390//125 389//125
f 392//126 393//127 394//127
f 393//127 392//126 391//126
